<svg width="15" height="20" viewBox="0 0 15 20" xmlns="http://www.w3.org/2000/svg">
  <style>
    path { fill: black; }
    @media (prefers-color-scheme: dark) {
      path { fill: white; }
    }
  </style>
  <path d="M14.208 0.190287H11.84C11.6709 0.190287 11.5017 0.317144 11.5017 0.528573V11.5652C11.5017 15.3286 10.1063 17.1892 7.23086 17.1892C4.39772 17.1892 3.04457 15.3709 3.04457 11.5652V7.92858C3.04457 7.84401 3.00229 7.75944 2.96 7.71715C2.91772 7.67487 2.83315 7.63258 2.74857 7.63258C1.90286 7.63258 1.52229 7.63258 1.26857 7.63258C0.930287 7.63258 0.930287 7.63258 0.507429 7.63258H0.296C0.211429 7.63258 0.126857 7.67487 0.0845715 7.71715C0.0422858 7.71715 0 7.84401 0 7.92858V11.5229C0 18.4577 3.97486 19.8954 7.27315 19.8954C10.5714 19.8954 14.504 18.4577 14.504 11.5229V0.528573C14.5463 0.35943 14.4194 0.190287 14.208 0.190287Z"/>
  <path d="M2.74857 0.148001H0.338286C0.169143 0.148001 0 0.317144 0 0.528573V4.20743V4.50343C0 4.71486 0.169143 4.84172 0.338286 4.84172H2.74857C2.96 4.84172 3.08686 4.67258 3.08686 4.50343V4.20743V0.528573C3.08686 0.35943 2.96 0.148001 2.74857 0.148001Z"/>
</svg>
